<?xml version="1.0" encoding="utf-8"?>
<!-- Generator: Adobe Illustrator 21.1.0, SVG Export Plug-In . SVG Version: 6.00 Build 0)  -->
<svg version="1.0" id="Layer_1" xmlns="http://www.w3.org/2000/svg" xmlns:xlink="http://www.w3.org/1999/xlink" x="0px" y="0px"
	 viewBox="0 0 141.4 176.5" style="enable-background:new 0 0 141.4 176.5;" xml:space="preserve">
<style type="text/css">
	.st0{fill:#002D5B;}
	.st1{fill:#FDB515;}
</style>
<g>
	<path class="st0" d="M27.7,148.6c0-0.9,0-2.3-1.3-2.3c-0.8,0-1.3,0.6-1.3,1.4c0,0.4,0,0.8,0.4,1.2c0.4,0.4,1.3,0.7,1.9,0.8
		c1.6,0.4,3.7,1,5.1,1.9c0.8,0.5,1.3,1.2,1.6,2c0.4,0.9,0.5,1.9,0.5,2.9v0.1c0,4.1-1.8,7.2-8.2,7.2c-2.7,0-5.6-0.5-7.8-2.2V156h6.5
		c0,1.3,0,2.2,0.2,2.7c0.2,0.4,0.7,0.7,1.2,0.7c0.9,0,1.3-0.9,1.3-1.7c0-2.2-1.4-2.4-3.2-2.8c-4-1-6.3-2-6.3-6.6v-0.5
		c0.1-2.3,0.5-3.4,2.2-4.8c1.4-1.1,3.5-1.3,5.5-1.3c2.9,0,5.5,0.6,7.9,2.2v5h-6.2V148.6z"/>
	<path class="st0" d="M44.3,163.5H37v-3.8c0.7-0.5,0.8-1.6,1-2.4l2.8-15.2h9.5l3.1,15.5c0.1,0.7,0.4,1.9,1.1,2.1v3.8h-8.4v-3.8
		c0.5-0.2,0.8-0.6,0.8-1.2c0-0.2,0-0.4-0.1-0.6h-3.2c0,0.2-0.1,0.4-0.1,0.6c0,0.6,0.3,1,0.9,1.2V163.5z M46.2,153.8l-1.1-6.3h0
		l-1,6.3H46.2z"/>
	<path class="st0" d="M57.7,148c0-0.8,0.1-1.6-0.7-2.1v-3.8h8.1v3.8c-0.8,0.5-0.7,1.3-0.7,2.1v9.6c0,0.8-0.1,1.6,0.7,2.1v3.8H57
		v-3.8c0.8-0.5,0.7-1.3,0.7-2.1V148z"/>
	<path class="st0" d="M79.4,151.8L79.4,151.8l0-3.8c0-0.8,0.1-1.6-0.7-2.1v-3.8h6.8v3.8c-0.8,0.5-0.7,1.3-0.7,2.1v15.5h-6.5l-4-9.6
		h0v3.7c0,0.8-0.1,1.6,0.7,2.1v3.8h-6.6v-3.8c0.8-0.5,0.7-1.3,0.7-2.1V148c0-0.8,0.1-1.6-0.7-2.1v-3.8h7.2L79.4,151.8z"/>
	<path class="st0" d="M88.3,142.1h18.5v9.7H102v-3.6c0-1-0.2-1.5-1.2-1.5v11c0,0.8-0.1,1.6,0.7,2.1v3.8h-8.1v-3.8
		c0.8-0.5,0.7-1.3,0.7-2.1v-11c-0.9,0-1.2,0.5-1.2,1.5v3.6h-4.7V142.1z"/>
	<path class="st0" d="M118.5,148.6c0-0.9,0-2.3-1.3-2.3c-0.8,0-1.3,0.6-1.3,1.4c0,0.4,0.1,0.8,0.4,1.2c0.4,0.4,1.3,0.7,1.9,0.8
		c1.6,0.4,3.7,1,5.1,1.9c0.8,0.5,1.3,1.2,1.7,2c0.3,0.9,0.5,1.9,0.5,2.9v0.1c0,4.1-1.8,7.2-8.2,7.2c-2.7,0-5.6-0.5-7.8-2.2V156h6.5
		c0,1.3,0,2.2,0.2,2.7c0.2,0.4,0.7,0.7,1.2,0.7c0.9,0,1.3-0.9,1.3-1.7c0-2.2-1.4-2.4-3.2-2.8c-4-1-6.3-2-6.3-6.6v-0.5
		c0.1-2.3,0.5-3.4,2.2-4.8c1.4-1.1,3.5-1.3,5.5-1.3c2.9,0,5.5,0.6,7.9,2.2v5h-6.2V148.6z"/>
</g>
<g>
	<polygon class="st1" points="88.1,97 85.2,97 85.2,106.7 92.3,106.7 92.3,127.8 51,127.8 51,106.7 58.2,106.7 58.2,97 55.3,97 
		55.3,104 48.1,104 48.1,130.7 95,130.7 95,104 88.1,104 	"/>
	<polygon class="st1" points="21.4,11.7 21.4,45.5 48.1,45.5 48.1,38.6 55.3,38.6 55.3,59.1 58.2,59.1 58.2,35.7 45.2,35.7 
		45.2,42.8 24.3,42.8 24.3,14.6 119,14.6 119,42.8 98.1,42.8 98.1,35.7 85.2,35.7 85.2,59.1 88.1,59.1 88.1,38.6 95,38.6 95,45.5 
		121.9,45.5 121.9,11.7 	"/>
</g>
<g>
	<polygon class="st0" points="81.6,97 61.9,97 61.9,110.5 54.8,110.5 54.8,124.1 88.6,124.1 88.6,110.5 81.6,110.5 	"/>
	<polygon class="st0" points="28.1,18.3 28.1,39.1 41.5,39.1 41.5,31.9 61.9,31.9 61.9,59.1 81.6,59.1 81.6,31.9 101.7,31.9 
		101.7,39.1 115.4,39.1 115.4,18.3 	"/>
</g>
<g>
	<path class="st1" d="M43.9,72.4c0.1,3.1,0.3,6.1,0.4,9.2c0,3.7-0.7,6.7-2.1,9c-1.4,2.2-2.9,3.9-4.6,5.1c-1.5,1-3.3,1.7-5.6,2.1
		c-1.8,0.4-3.4,0.3-4.8-0.1c-1.8-0.6-2.9-1.8-3.2-3.6c-0.1-0.6,0.3-1.5,1.3-2.8c0.9-1.2,1.6-1.9,2.1-2c0.1,0,0.2,0,0.2,0.1
		c0,0,0,0.1-0.1,0.1c0,0.1-0.1,0.1-0.1,0.2c0,0,0.1,0.1,0.2,0c0.1,0,0.2-0.1,0.2-0.1c0,0,0-0.1-0.1-0.1c0-0.1-0.1-0.1-0.1-0.1
		c0-0.1,0.1-0.1,0.2-0.1l0.9-0.2c0.2,0.4,0.4,0.9,0.5,1.5c0.1,0.4,0.2,1,0.2,1.7c0.1,0.8,0.2,1.3,0.2,1.6c0.3,1.6,1.2,2.2,2.8,1.9
		c2.7-0.5,4.2-2.7,4.7-6.5c0.1,0.5,0.2,0.8,0.4,0.9c0.1-0.2,0.2-0.4,0.2-0.5c0-0.1-0.1-0.3-0.3-0.6c-0.2-0.3-0.3-0.5-0.3-0.6
		c0.1-2.8,0.1-5,0.2-6.4c-0.2-4.4-0.3-6.8-0.2-7.2c0.1-1.5,0.4-3,1-4.5c0.4-0.8,1.1-1.9,2.4-3.2c1.3-1.4,2.4-2.2,3.2-2.4
		c0.6-0.1,1.2,0.1,1.7,0.7C44.4,66.8,43.9,69.1,43.9,72.4z M51.8,64.7c-0.3-0.6-0.8-1.4-1.5-2.2c-0.7-0.8-1.1-1.2-1.3-1.2
		c-0.2,0-0.2,0.1-0.2,0.2c0,0.1,0,0.1-0.2,0.2c0.1,0-0.2-0.2-0.8-0.6c-0.7-0.5-1.7-0.8-2.8-1c-1.9-0.3-3.1-0.4-3.6-0.3
		c-0.2,0-0.3,0.1-0.5,0.3c-0.2,0.2-0.4,0.3-0.5,0.3c-0.2,0-0.5,0-1,0c-0.5,0-0.9,0-1.1,0c-2.7,0.5-5.4,2.1-8,4.6
		c-2.5,2.5-4.1,5-4.7,7.5c0.1,0.3,0.1,0.9-0.1,1.6c-0.2,0.7-0.1,1.6,0.1,2.5c0.2,0,0.4-0.1,0.5-0.3c0.2-0.2,0.3-0.3,0.3-0.3
		c0.2,0.1,0.3,0.2,0.2,0.4c0.3,1.1,0.5,1.8,0.8,2.2c0.3,0.4,0.4,0.6,0.5,0.7c0,0.2,0,0.3-0.1,0.3c-0.3-0.1-0.4-0.1-0.5-0.1
		c0.8,0.6,1.4,0.8,1.7,0.8c0.5-0.1,1.6-0.7,3.5-1.9c-0.4-0.9-0.8-1.6-1-2.2c0-0.1-0.4-0.3-0.9-0.8c-0.4-0.3-0.7-1-0.9-2
		c-0.4-2.1,0.5-4.4,2.6-6.9c2-2.4,4.1-3.8,6.2-4.2c2.4-0.5,4.2-0.5,5.5-0.3c2.2,0.5,3.6,2,4.1,4.5c0.3,1.3,0.3,2.7,0,4.1
		C48,71,47.6,72,46.9,73.4c-0.6,1.3-0.9,2-0.9,2.2c0.1,0.3,0.4,0.6,1,0.8c0.5,0.2,1.1,0.2,1.6,0.1c0.5-0.1,1.3-0.7,2.4-1.9
		c1.1-1.2,1.5-2,1.4-2.6c0-0.2-0.1-0.4-0.3-0.6c-0.2-0.2-0.3-0.4-0.3-0.5c0-0.1,0-0.1,0-0.2c0.4,0.3,0.6,0.5,0.8,0.6
		c0.2-2.2,0.3-3.6,0.2-4.2C52.8,66.7,52.5,65.9,51.8,64.7z M25.9,75l-0.2-1.1l0.4-0.1l0.2,1.1L25.9,75z M26.3,75.6L26.2,75l0.4-0.1
		l0.1,0.6L26.3,75.6z M26.7,79l-0.5-1.5l0.4-0.1l0.5,1.5L26.7,79z M29.3,93.1L28.4,93l-0.1,0.3l0.9,0.1L29.3,93.1z M32.8,78.1
		c-0.4-0.8-0.7-1.4-0.9-1.9c0.3-0.1,0.7,0.1,1.2,0.5l0.1,0.8L32.8,78.1z M38.5,90.4l-0.4,0.1l0.5,1.5l0.4-0.1L38.5,90.4z M38.5,88.6
		l-0.3,1.3l0.4,0.1l0.2-1.4L38.5,88.6z M43.3,75.6l-0.3-0.1l0.2-0.6l0.4,0.1L43.3,75.6z M48.7,71.8c-0.4,0.4-0.7,0.8-0.8,1
		c0.4-0.5,0.6-0.8,0.9-0.8c0.4-0.1,0.5,0,0.5,0.1c-0.1-0.3,0-0.6,0.1-0.8C49.4,71.2,49.1,71.4,48.7,71.8z M49.4,75.1l-0.5,0.4
		l0.1,0.3l0.6-0.4L49.4,75.1z M49.8,74.2l-0.1-0.3l0.5-0.4l0.2,0.3L49.8,74.2z M50.7,66.5l-0.3-0.1l0.2-0.6l0.4,0.1L50.7,66.5z"/>
	<path class="st1" d="M69.4,68.6c-0.3,2-0.5,3.8-0.9,5.7c-0.2-0.4-0.5-1-0.9-1.7c-0.2,0.6-0.2,1.4,0.1,2.4c0.2,0.1,0.4,0,0.7-0.3
		c0.1,0.3-0.1,0.6-0.4,0.9c0,0.8-0.1,2.3-0.2,4.4c-0.1,1.9-0.1,2.9-0.1,3.1c0.2,0.9,0.3,1.4,0.4,1.5c0.2,0.3,0.8,0.6,1.6,0.8
		l0.7,3.4c-1.1,1-1.8,1.5-1.9,1.6c-0.3,0.2-0.8,0.3-1.5,0.5c-2.5,0.5-4-0.7-4.5-3.6c-0.3-1.4-0.2-3.1,0.3-4.9
		c0.7-2.5,1.1-4.1,1.1-4.7c-1.7,0.6-3.1,1.9-4.2,3.8c-1.4,2.7-2.6,4.5-3.4,5.3l-0.4-2.2c0.7-1,1.5-2.5,2.5-4.4
		c-0.7-0.6-1.4-1.2-2.1-1.7c-0.1-0.1-0.2-0.6-0.4-1.5c-0.3-1.3-0.1-2.7,0.5-4c0.7-1.5,1.8-2.4,3.3-2.7c0.2,0,0.4-0.1,0.6-0.1
		c0.6,0.4,1,1.1,1.2,1.9c0.1,0.5,0.1,1.2,0.1,2.1c0,0.9,0,1.5,0.1,1.9c0,0.2,0.1,0.3,0.1,0.4c2.6-1.3,4.4-3.9,5.5-7.6L69.4,68.6z
		 M60.3,74c0-0.1-0.3-0.3-0.7-0.6c-0.2,0.2-0.5,0.4-1,0.5l0.2,1l0.5-0.6c0.2,0.1,0.4,0,0.6,0C60.2,74.1,60.4,74,60.3,74z M67.6,72.6
		l-0.1-0.7L67,72l0.1,0.7L67.6,72.6z M74.3,80.8c-1.7,2.6-3,4.1-4,4.6c0.6,0.4,0.9,0.7,0.9,1c0-0.1,0-0.2,0.2-0.3
		c0.1,0.1,0.3,0.3,0.3,0.7l0.7-0.9c0.2,0.1,0.4,0.2,0.5,0.1c0.3-0.1,0.7-0.4,1.1-0.9c0.4-0.6,0.7-1.1,0.8-1.6c0.1-0.2,0-0.7-0.1-1.3
		C74.4,81.4,74.3,80.9,74.3,80.8z M71,87.3l-0.4,0.1l-0.2-0.9l0.4-0.1L71,87.3z M72.1,86.2l-0.4,0.1l-0.2-0.9l0.4-0.1L72.1,86.2z
		 M72.6,85.1l-0.1-0.7l-0.4,0.1l0.1,0.7L72.6,85.1z"/>
	<path class="st1" d="M74.9,77.3l0,2.7l-0.4,0.1l0-2.7L74.9,77.3z M92.9,77.8l0.2,2.6c-0.1-0.4-0.2-0.5-0.5-0.5
		c0.4,1-0.8,2.8-3.6,5.2c0,0,0-0.2,0-0.6c0-0.3,0-0.6,0-0.8c-0.1,0-0.4-0.1-0.8-0.3c-0.1,0.1,0,0.3,0.1,0.7c0.2,0.5,0.4,1.1,0.5,1.6
		c-1.7,1.1-3.4,1.8-4.9,2.1c-2.2,0.4-4,0.2-5.6-0.8c-1.5-1-2.5-2.5-2.9-4.6c-0.1-0.3-0.1-0.5-0.1-0.8c0.1-0.2,0.2-0.4,0.3-0.6
		c0.1-0.3,0.3-0.4,0.5-0.4c0.1,0.6,0.4,1,0.7,1.4l0.2,0c-0.2-0.3-0.5-1.2-0.8-2.6c-0.3-1.1-0.6-1.8-1-2c0.1-0.2,0.2-0.4,0.3-0.7
		c-0.2-0.5-0.2-1.3-0.3-2.3c0.7-2.3,1.9-4.2,3.5-5.8c1.6-1.5,3.2-2.4,5-2.8c3.2-0.6,5.1,0.5,5.7,3.3c0.3,1.7-0.2,3.3-1.6,4.8
		c-0.7,0.7-2.4,2-5.1,4l-0.3-1.4c0.6-0.5,1.3-1.4,1.9-2.7c0.7-1.4,1-2.5,0.8-3.3c-0.1-0.5-0.3-1-0.7-1.6c-0.5-0.8-1.1-1.1-1.7-1
		c-0.9,0.2-1.7,1-2.4,2.5c-0.7,1.4-1,2.5-0.9,3.4c-0.1-0.3-0.1-0.4,0-0.5L78.9,73c-0.1,1.1-0.1,2.3-0.1,3.5
		c-0.2-0.5-0.2-0.9-0.1-1.4l-0.5-0.3c-0.1,0.3-0.2,0.7-0.3,1.1c0,0.5-0.1,0.9-0.2,1.2c0.4-0.1,0.9-0.2,1.7-0.2
		c0.1-0.1,0.1-0.5,0.2-1l0.3,1.5c0.1,0.1,0.2,0.2,0.3,0.2c0.1,0.1,0.2,0.1,0.5,0.1c0.2,0,0.2-0.1,0.2-0.2c0,0,0-0.1-0.1-0.1
		c0-0.1-0.1-0.1-0.1-0.1c0-0.1,0.1-0.1,0.2-0.2c0.3,0,0.6,0.1,1,0.4C82,77.4,82,77.2,82,77c0-0.3,0-0.4,0-0.5
		c0.3,1.3,0.1,2.1-0.6,2.5c-0.3,0.1-0.6-0.2-0.9-0.6c-0.2,0.3-0.2,0.7-0.1,1.2c0.2,0.8,0.8,1.7,1.8,2.5c1,0.8,1.7,1.2,2.2,1.2
		c0.5,0,0.9,0,1.4,0c0.7,0,1.2,0.1,1.3,0.3c0.3-0.5,0.5-0.7,0.6-0.7c0.1,0,0.2,0,0.3,0l0.5-0.6c0,0.2,0.1,0.4,0.3,0.5
		C88.9,82.2,90.3,80.5,92.9,77.8z M76.8,77.1l-0.4-1.4l-0.5,0.1l0.4,1.4L76.8,77.1z M77.1,77.6l-0.3-0.2l-0.5,0.7l0.3,0.2L77.1,77.6
		z M79.5,77.2C79.2,78,79,79,79,80.2c-0.2-0.1-0.3-0.3-0.4-0.7c-0.2-0.9-0.1-1.6,0.3-2.1l-1,0.2l0.6,3c0.3-0.1,0.5,0.1,0.6,0.3
		c0,1.4,0.1,3.4,0.3,5.9c0-0.7,0.2-1.7,0.6-3.2c-0.2-0.3-0.3-0.7-0.4-1.1c-0.1-0.6-0.1-1.4,0-2.6C79.5,78.5,79.6,77.7,79.5,77.2z
		 M78.7,73.6l-0.2-0.9l-0.4,0.1l0.2,0.9L78.7,73.6z M78.7,81.3l-0.5,0.1l0,1.5l0.4-0.1L78.7,81.3z M79.5,72l-0.4-0.1l-0.2,0.7
		l0.4,0.1L79.5,72z M84.2,75.9l-0.5-0.7l-0.3,0.2l0.4,0.5L84.2,75.9z M84.9,85l-0.5-0.7l-0.3,0.2l0.4,0.5L84.9,85z M86.3,73.1
		L86,72.9l-0.5,0.7l0.3,0.2L86.3,73.1z M87.9,85.3l-0.2-0.9l-0.4,0.1l0.2,0.9L87.9,85.3z"/>
	<path class="st1" d="M115,67.1c0.5,2.6,0.1,5.6-1.2,9c-1.5,4-3.5,6.2-6.2,6.7c-0.2,0-0.5,0.1-0.8,0.3c-0.3,0.2-0.6,0.2-0.8,0.3
		c-1.5,0.3-2.8,0.1-3.8-0.7c-0.3,1.9-0.4,3.7-0.3,5.5c-0.6,0.1-1.6,0.3-3,0.5c-1.3,0.2-2.1,0.3-2.3,0.3c-0.2,0-0.4,0.1-0.4,0.1
		c0,0,0,0,0,0.1c0.2,0.1,0.3,0.2,0.3,0.2c-0.6-4.4-0.6-9.2,0-14.4c-0.1-0.1-0.3-0.2-0.5-0.4c-0.2-0.2-0.3-0.3-0.5-0.4
		c-0.4,0.2-1,0.7-1.8,1.5c0,0.1,0.1,0.2,0.2,0.3c0,0,0.1,0,0.4-0.1c0.3-0.1,0.5-0.2,0.8-0.5c0.2-0.2,0.4-0.4,0.7-0.6
		c-1.3,2.4-2.4,4.2-3.4,5.4l-0.3-1.3c0.5,0.2,0.9,0.1,1-0.1c0-0.1-0.1-0.1-0.4-0.2c-0.4,0-0.7-0.1-0.8-0.1c0.5-1,1-1.9,1.5-2.9
		c0.7-1.3,1.3-2,1.8-2.2c-0.1-0.4-0.2-0.6-0.3-0.8c-0.2-0.2-0.3-0.4-0.3-0.4c0.2-0.5,0.5-1.6,0.9-3.5c0.3-1.5,0.8-2.7,1.2-3.6
		c0.3-0.6,1.1-1.1,2.3-1.5c1-0.3,2-0.6,3-0.9c0,0.7,0.1,1.3,0.1,2c0,1-0.2,1.6-0.6,1.7l0.6,0.3c0.2-0.1,0.5-0.4,0.8-1
		c0.4-0.7,0.6-1.1,0.7-1.2c1.3-1.7,2.8-2.7,4.3-3C111.8,60.6,114.1,62.6,115,67.1z M101.9,87.9c0.3,3.3,0.5,5,0.6,5.2
		c-1.3,0.5-3.2,1.2-5.8,2.3c-0.1-1.9-0.1-4-0.2-6.4C98.7,88.8,100.3,88.4,101.9,87.9z M97.5,69.1l-0.3-0.2L96.4,70l0.3,0.2
		L97.5,69.1z M98.2,69.8l-0.3-0.2l-0.8,1.1l0.3,0.3L98.2,69.8z M98.1,75.6l-0.2-0.4l-0.6,0.5l0.1,0.4L98.1,75.6z M101.2,69.6
		c-0.8,0.3-1.5,0.5-2.3,0.8c-0.6,0.2-0.9,0.6-1,1.2c0.1,0,0.2-0.1,0.3-0.2c0.1-0.1,0.3-0.2,0.6-0.2c0.3,0,0.4,0.1,0.5,0.3
		c0.1,0.3,0.2,0.4,0.2,0.4c0.6-0.9,0.9-1.5,0.8-1.9c0.2,0.1,0.3,0.1,0.5,0C101.1,69.8,101.2,69.7,101.2,69.6z M101.1,67.9
		c-0.8,0.6-1.4,1-2,1.1l1.6,0.1C101,68.6,101.2,68.2,101.1,67.9z M100.7,77.4l-0.7,0.5l-0.1-0.4l0.6-0.5L100.7,77.4z M101.9,72.5
		l-0.4-0.2l-0.8,1.1l0.3,0.2L101.9,72.5z M101.7,68.5l-0.3-0.2l-0.6,0.8l0.3,0.2L101.7,68.5z M109.3,69.8c-0.6-3-1.7-4.4-3.2-4.1
		c-1.9,0.4-3.2,2.5-3.8,6.5c-0.5,3.1-0.6,5.6-0.2,7.4c0.1,0.7,0.5,1.2,1.2,1.6c0.7,0.4,1.4,0.5,2.1,0.3c1.8-0.3,3-2.1,3.6-5.4
		C109.5,73.7,109.6,71.6,109.3,69.8z"/>
</g>
</svg>
